<svg xmlns="http://www.w3.org/2000/svg" width="14" height="18" viewBox="0 0 51 67">
  <defs>
    <style>
      .cls-1 {
        fill: #60babe;
        fill-rule: evenodd;
      }
    </style>
  </defs>
  <path id="delete" class="cls-1" d="M27.022,4.044H37.978V5.929h3.957V3.781A3.743,3.743,0,0,0,38.239,0H26.762a3.744,3.744,0,0,0-3.7,3.781V5.929h3.957V4.044Zm0,0M51.073,21.952H13.927a1.766,1.766,0,0,0-1.737,1.925L15.3,63.122A4.162,4.162,0,0,0,19.4,67H45.6A4.162,4.162,0,0,0,49.7,63.121L52.81,23.876a1.765,1.765,0,0,0-1.737-1.925h0ZM22.921,62.814c-0.042,0-.083,0-0.124,0a2,2,0,0,1-1.973-1.9L18.878,28.7a1.979,1.979,0,1,1,3.95-.249l1.946,32.219a2.007,2.007,0,0,1-1.853,2.143h0ZM34.5,60.8a1.979,1.979,0,1,1-3.957,0V28.577a1.979,1.979,0,1,1,3.957,0V60.8ZM46.122,28.7L44.264,60.915a2,2,0,0,1-1.973,1.9l-0.118,0a2.007,2.007,0,0,1-1.859-2.138l1.858-32.219a1.979,1.979,0,1,1,3.95.238h0Zm0,0M57.916,15.711l-1.3-3.981a2.521,2.521,0,0,0-2.387-1.757H10.77A2.521,2.521,0,0,0,8.384,11.73l-1.3,3.981a1.684,1.684,0,0,0,.684,1.941,1.591,1.591,0,0,0,.864.255H56.367a1.587,1.587,0,0,0,.864-0.255,1.684,1.684,0,0,0,.684-1.941h0Zm0,0" transform="translate(-7)"/>
</svg>
