<svg 
 xmlns="http://www.w3.org/2000/svg"
 xmlns:xlink="http://www.w3.org/1999/xlink"
 width="16px" height="16px">
<path fill-rule="evenodd"  fill="rgb(96, 186, 190)"
 d="M15.107,5.159 L9.861,10.503 C9.090,11.285 8.069,11.715 6.984,11.715 L5.246,11.715 C4.817,11.715 4.470,11.362 4.470,10.925 L4.470,9.154 C4.470,8.049 4.892,7.008 5.659,6.224 L10.912,0.872 C11.502,0.271 12.287,-0.017 13.067,0.000 C13.808,0.016 14.543,0.306 15.107,0.879 C16.264,2.059 16.264,3.980 15.107,5.159 ZM10.220,3.813 L6.757,7.341 C6.283,7.825 6.022,8.470 6.022,9.154 L6.022,10.134 L6.984,10.134 C7.655,10.134 8.289,9.868 8.764,9.385 L12.227,5.857 L10.220,3.813 ZM14.009,1.997 C13.457,1.434 12.557,1.433 12.003,1.997 L11.317,2.695 L13.324,4.740 L14.009,4.042 C14.562,3.478 14.562,2.561 14.009,1.997 ZM6.837,2.561 L2.328,2.561 C1.900,2.561 1.552,2.915 1.552,3.351 L1.552,13.628 C1.552,14.065 1.900,14.419 2.328,14.419 L10.864,14.419 C11.293,14.419 11.640,14.065 11.640,13.628 L11.640,11.145 C11.640,10.708 11.987,10.355 12.416,10.355 C12.845,10.355 13.192,10.708 13.192,11.145 L13.192,13.628 C13.192,14.937 12.148,16.000 10.864,16.000 L2.328,16.000 C1.044,16.000 -0.000,14.936 -0.000,13.628 L-0.000,3.351 C-0.000,2.044 1.044,0.980 2.328,0.980 L6.837,0.980 C7.266,0.980 7.613,1.333 7.613,1.770 C7.613,2.207 7.266,2.561 6.837,2.561 Z"/>
</svg>