<svg xmlns="http://www.w3.org/2000/svg" width="18" height="18" viewBox="0 0 67 67">
  <defs>
    <style>
      .cls-1 {
        fill: #60babe;
        fill-rule: evenodd;
      }
    </style>
  </defs>
  <path id="add" class="cls-1" d="M0,33.5C0.3,17.086,12.106,3.081,28.106.456A33.279,33.279,0,0,1,66.367,27.138a30.075,30.075,0,0,1,.368,10.024A3.156,3.156,0,0,1,63,40.076a3.264,3.264,0,0,1-2.687-3.824A26.827,26.827,0,1,0,30.261,60.269a26.6,26.6,0,0,0,17.317-3.712,3.479,3.479,0,0,1,3.064-.625,3.3,3.3,0,0,1,.771,5.947,32.782,32.782,0,0,1-12.165,4.657A33.128,33.128,0,0,1,1.533,42.343C0.754,39.467.5,36.448,0,33.5Zm36.881,3.277c0,3.236.03,6.241-.011,9.244-0.028,2.079-1.159,3.377-2.928,3.51A3.119,3.119,0,0,1,30.4,46.26c-0.077-2.353-.025-4.71-0.028-7.066,0-.733,0-1.467,0-2.337-0.726-.032-1.315-0.078-1.905-0.08-2.471-.011-4.943.035-7.413-0.025a3.258,3.258,0,1,1,.041-6.511c2.556-.056,5.115-0.017,7.672-0.019h1.6c0-.635,0-1.14,0-1.644,0-2.573-.037-5.148.02-7.72a3.134,3.134,0,0,1,3.18-3.389c1.954-.023,3.239,1.252,3.29,3.407,0.058,2.441.018,4.885,0.02,7.328,0,0.6,0,1.2,0,2.018H40.75c1.691,0,3.382-.016,5.072,0,2.377,0.03,3.72,1.205,3.736,3.233,0.017,2.086-1.345,3.288-3.8,3.308-2.427.02-4.855,0-7.283,0.005h-1.6Z"/>
</svg>
