<svg 
 xmlns="http://www.w3.org/2000/svg"
 xmlns:xlink="http://www.w3.org/1999/xlink"
 width="13px" height="13px">
<path fill-rule="evenodd"  fill=" rgb(254, 192, 7)"
 d="M12.966,4.912 C12.880,4.637 12.647,4.442 12.372,4.416 L8.619,4.061 L7.136,0.438 C7.026,0.171 6.777,-0.000 6.500,-0.000 C6.223,-0.000 5.973,0.171 5.864,0.438 L4.381,4.061 L0.628,4.416 C0.353,4.443 0.120,4.638 0.034,4.912 C-0.052,5.186 0.027,5.488 0.235,5.678 L3.072,8.274 L2.236,12.118 C2.175,12.400 2.280,12.693 2.504,12.862 C2.625,12.954 2.767,13.000 2.910,13.000 C3.032,13.000 3.154,12.966 3.264,12.897 L6.500,10.878 L9.735,12.897 C9.973,13.045 10.271,13.032 10.495,12.862 C10.720,12.693 10.825,12.400 10.764,12.118 L9.928,8.274 L12.764,5.678 C12.972,5.488 13.052,5.187 12.966,4.912 L12.966,4.912 Z"/>
</svg>